<svg width="468" height="294" viewBox="0 0 468 294" fill="none" xmlns="http://www.w3.org/2000/svg">
<mask id="mask0_18006_5253" style="mask-type:alpha" maskUnits="userSpaceOnUse" x="78" y="0" width="312" height="253">
<path d="M264.684 23.1597C328.198 61.0657 366.322 67.7927 383.088 118.262C399.853 168.731 384.004 231.544 323.98 247.019C263.955 262.493 262.326 236.837 171.733 240.92C81.1392 245.003 48.9512 113.229 109.863 53.0927C170.775 -7.04434 201.17 -14.7453 264.684 23.1597Z" fill="white"/>
</mask>
<g mask="url(#mask0_18006_5253)">
<path d="M214.748 210.238C261.53 210.238 299.455 172.314 299.455 125.531C299.455 78.7486 261.53 40.8246 214.748 40.8246C167.966 40.8246 130.042 78.7486 130.042 125.531C130.042 172.314 167.966 210.238 214.748 210.238Z" fill="black"/>
<path d="M160.808 130.36C161.073 130.36 161.328 130.254 161.515 130.067C161.703 129.879 161.808 129.625 161.808 129.36C161.808 129.094 161.703 128.84 161.515 128.653C161.328 128.465 161.073 128.36 160.808 128.36C160.543 128.36 160.289 128.465 160.101 128.653C159.914 128.84 159.808 129.094 159.808 129.36C159.808 129.625 159.914 129.879 160.101 130.067C160.289 130.254 160.543 130.36 160.808 130.36ZM161.908 152.14C162.173 152.14 162.428 152.034 162.615 151.847C162.803 151.659 162.908 151.405 162.908 151.14C162.908 150.874 162.803 150.62 162.615 150.433C162.428 150.245 162.173 150.14 161.908 150.14C161.643 150.14 161.389 150.245 161.201 150.433C161.013 150.62 160.908 150.874 160.908 151.14C160.908 151.405 161.013 151.659 161.201 151.847C161.389 152.034 161.643 152.14 161.908 152.14ZM199.748 125.401C200.04 125.401 200.32 125.284 200.526 125.078C200.732 124.871 200.848 124.592 200.848 124.3C200.848 124.008 200.732 123.728 200.525 123.522C200.319 123.315 200.039 123.2 199.747 123.2C199.455 123.2 199.175 123.316 198.969 123.522C198.763 123.729 198.647 124.009 198.647 124.301C198.647 124.593 198.763 124.872 198.97 125.079C199.176 125.285 199.456 125.401 199.748 125.401ZM281.368 134.761C281.633 134.761 281.888 134.655 282.075 134.468C282.263 134.28 282.368 134.026 282.368 133.761C282.368 133.495 282.263 133.241 282.075 133.054C281.888 132.866 281.633 132.761 281.368 132.761C281.103 132.761 280.849 132.866 280.661 133.054C280.474 133.241 280.368 133.495 280.368 133.761C280.368 134.026 280.474 134.28 280.661 134.468C280.849 134.655 281.103 134.761 281.368 134.761ZM275.648 142.241C275.913 142.241 276.168 142.135 276.355 141.948C276.543 141.76 276.648 141.506 276.648 141.241C276.648 140.975 276.543 140.721 276.355 140.534C276.168 140.346 275.913 140.241 275.648 140.241C275.383 140.241 275.129 140.346 274.941 140.534C274.754 140.721 274.648 140.975 274.648 141.241C274.648 141.506 274.754 141.76 274.941 141.948C275.129 142.135 275.383 142.241 275.648 142.241ZM154.208 151.04C154.473 151.04 154.728 150.934 154.915 150.747C155.103 150.559 155.208 150.305 155.208 150.04C155.208 149.774 155.103 149.52 154.915 149.333C154.728 149.145 154.473 149.04 154.208 149.04C153.943 149.04 153.689 149.145 153.501 149.333C153.314 149.52 153.208 149.774 153.208 150.04C153.208 150.305 153.314 150.559 153.501 150.747C153.689 150.934 153.943 151.04 154.208 151.04ZM188.968 104.84C189.233 104.84 189.488 104.734 189.675 104.547C189.863 104.359 189.968 104.105 189.968 103.84C189.968 103.574 189.863 103.32 189.675 103.133C189.488 102.945 189.233 102.84 188.968 102.84C188.703 102.84 188.449 102.945 188.261 103.133C188.074 103.32 187.968 103.574 187.968 103.84C187.968 104.105 188.074 104.359 188.261 104.547C188.449 104.734 188.703 104.84 188.968 104.84ZM154.648 115.84C154.913 115.84 155.168 115.734 155.355 115.547C155.543 115.359 155.648 115.105 155.648 114.84C155.648 114.574 155.543 114.32 155.355 114.133C155.168 113.945 154.913 113.84 154.648 113.84C154.383 113.84 154.129 113.945 153.941 114.133C153.754 114.32 153.648 114.574 153.648 114.84C153.648 115.105 153.754 115.359 153.941 115.547C154.129 115.734 154.383 115.84 154.648 115.84ZM189.628 112.98C189.893 112.98 190.148 112.874 190.335 112.687C190.523 112.499 190.628 112.245 190.628 111.98C190.628 111.714 190.523 111.46 190.335 111.273C190.148 111.085 189.893 110.98 189.628 110.98C189.363 110.98 189.109 111.085 188.921 111.273C188.733 111.46 188.628 111.714 188.628 111.98C188.628 112.245 188.733 112.499 188.921 112.687C189.109 112.874 189.363 112.98 189.628 112.98ZM178.628 129.261C178.893 129.261 179.148 129.155 179.335 128.968C179.523 128.78 179.628 128.526 179.628 128.261C179.628 127.995 179.523 127.741 179.335 127.554C179.148 127.366 178.893 127.261 178.628 127.261C178.363 127.261 178.109 127.366 177.921 127.554C177.733 127.741 177.628 127.995 177.628 128.261C177.628 128.526 177.733 128.78 177.921 128.968C178.109 129.155 178.363 129.261 178.628 129.261ZM212.728 129.48C212.993 129.48 213.248 129.374 213.435 129.187C213.623 128.999 213.728 128.745 213.728 128.48C213.728 128.214 213.623 127.96 213.435 127.773C213.248 127.585 212.993 127.48 212.728 127.48C212.463 127.48 212.209 127.585 212.021 127.773C211.834 127.96 211.728 128.214 211.728 128.48C211.728 128.745 211.834 128.999 212.021 129.187C212.209 129.374 212.463 129.48 212.728 129.48ZM205.028 79.6397C205.32 79.6397 205.6 79.5238 205.806 79.3175C206.012 79.1112 206.128 78.8314 206.128 78.5397C206.128 78.2479 206.012 77.9681 205.806 77.7618C205.6 77.5556 205.32 77.4397 205.028 77.4397C204.736 77.4397 204.457 77.5556 204.25 77.7618C204.044 77.9681 203.928 78.2479 203.928 78.5397C203.928 78.8314 204.044 79.1112 204.25 79.3175C204.457 79.5238 204.736 79.6397 205.028 79.6397ZM197.548 96.7997C197.84 96.7997 198.12 96.6838 198.326 96.4775C198.532 96.2712 198.648 95.9914 198.648 95.6997C198.648 95.4079 198.532 95.1281 198.326 94.9218C198.12 94.7155 197.84 94.5997 197.548 94.5997C197.256 94.5997 196.977 94.7155 196.77 94.9218C196.564 95.1281 196.448 95.4079 196.448 95.6997C196.448 95.9914 196.564 96.2712 196.77 96.4775C196.977 96.6838 197.256 96.7997 197.548 96.7997ZM234.948 85.7997C235.24 85.7997 235.52 85.6838 235.726 85.4775C235.932 85.2712 236.048 84.9914 236.048 84.6997C236.048 84.4079 235.932 84.1281 235.726 83.9218C235.52 83.7155 235.24 83.5997 234.948 83.5997C234.656 83.5997 234.377 83.7155 234.17 83.9218C233.964 84.1281 233.848 84.4079 233.848 84.6997C233.848 84.9914 233.964 85.2712 234.17 85.4775C234.377 85.6838 234.656 85.7997 234.948 85.7997ZM189.408 95.1607C189.673 95.1607 189.928 95.0553 190.115 94.8678C190.303 94.6802 190.408 94.4259 190.408 94.1607C190.408 93.8954 190.303 93.6411 190.115 93.4536C189.928 93.266 189.673 93.1607 189.408 93.1607C189.143 93.1607 188.889 93.266 188.701 93.4536C188.513 93.6411 188.408 93.8954 188.408 94.1607C188.408 94.4259 188.513 94.6802 188.701 94.8678C188.889 95.0553 189.143 95.1607 189.408 95.1607ZM224.168 65.2407C224.433 65.2407 224.688 65.1353 224.875 64.9478C225.063 64.7602 225.168 64.5059 225.168 64.2407C225.168 63.9754 225.063 63.7211 224.875 63.5335C224.688 63.346 224.433 63.2407 224.168 63.2407C223.903 63.2407 223.649 63.346 223.461 63.5335C223.274 63.7211 223.168 63.9754 223.168 64.2407C223.168 64.5059 223.274 64.7602 223.461 64.9478C223.649 65.1353 223.903 65.2407 224.168 65.2407ZM179.288 124.64C179.553 124.64 179.808 124.534 179.995 124.347C180.183 124.159 180.288 123.905 180.288 123.64C180.288 123.374 180.183 123.12 179.995 122.933C179.808 122.745 179.553 122.64 179.288 122.64C179.023 122.64 178.769 122.745 178.581 122.933C178.394 123.12 178.288 123.374 178.288 123.64C178.288 123.905 178.394 124.159 178.581 124.347C178.769 124.534 179.023 124.64 179.288 124.64ZM171.588 74.7997C171.88 74.7997 172.16 74.6838 172.366 74.4775C172.572 74.2712 172.688 73.9914 172.688 73.6997C172.688 73.4079 172.572 73.1281 172.366 72.9218C172.16 72.7155 171.88 72.5997 171.588 72.5997C171.296 72.5997 171.017 72.7155 170.81 72.9218C170.604 73.1281 170.488 73.4079 170.488 73.6997C170.488 73.9914 170.604 74.2712 170.81 74.4775C171.017 74.6838 171.296 74.7997 171.588 74.7997ZM164.108 91.9607C164.253 91.9606 164.396 91.9321 164.529 91.8767C164.663 91.8213 164.784 91.7402 164.886 91.638C164.988 91.5357 165.069 91.4144 165.125 91.2808C165.18 91.1473 165.208 91.0042 165.208 90.8597C165.208 90.7151 165.18 90.572 165.124 90.4386C165.069 90.3051 164.988 90.1838 164.885 90.0816C164.783 89.9795 164.662 89.8985 164.528 89.8432C164.395 89.788 164.252 89.7596 164.107 89.7597C163.815 89.7598 163.535 89.8759 163.329 90.0823C163.123 90.2888 163.007 90.5688 163.007 90.8607C163.007 91.1525 163.123 91.4324 163.33 91.6387C163.536 91.845 163.816 91.9608 164.108 91.9607ZM201.508 80.9607C201.653 80.9606 201.796 80.9321 201.929 80.8767C202.063 80.8213 202.184 80.7402 202.286 80.638C202.388 80.5357 202.469 80.4144 202.525 80.2808C202.58 80.1473 202.608 80.0042 202.608 79.8597C202.608 79.7151 202.58 79.572 202.524 79.4386C202.469 79.3051 202.388 79.1838 202.285 79.0816C202.183 78.9795 202.062 78.8985 201.928 78.8432C201.795 78.788 201.652 78.7596 201.507 78.7597C201.215 78.7598 200.935 78.8759 200.729 79.0823C200.523 79.2888 200.407 79.5688 200.407 79.8607C200.407 80.1525 200.523 80.4324 200.73 80.6387C200.936 80.845 201.216 80.9608 201.508 80.9607ZM146.728 103.52C146.993 103.52 147.248 103.414 147.435 103.227C147.623 103.039 147.728 102.785 147.728 102.52C147.728 102.254 147.623 102 147.435 101.813C147.248 101.625 146.993 101.52 146.728 101.52C146.463 101.52 146.209 101.625 146.021 101.813C145.834 102 145.728 102.254 145.728 102.52C145.728 102.785 145.834 103.039 146.021 103.227C146.209 103.414 146.463 103.52 146.728 103.52ZM190.728 60.3997C190.993 60.3997 191.248 60.2943 191.435 60.1068C191.623 59.9192 191.728 59.6649 191.728 59.3997C191.728 59.1344 191.623 58.8801 191.435 58.6926C191.248 58.505 190.993 58.3997 190.728 58.3997C190.463 58.3997 190.209 58.505 190.021 58.6926C189.834 58.8801 189.728 59.1344 189.728 59.3997C189.728 59.6649 189.834 59.9192 190.021 60.1068C190.209 60.2943 190.463 60.3997 190.728 60.3997ZM189.848 76.2407C190.113 76.2407 190.368 76.1353 190.555 75.9478C190.743 75.7602 190.848 75.5059 190.848 75.2407C190.848 74.9754 190.743 74.7211 190.555 74.5335C190.368 74.346 190.113 74.2407 189.848 74.2407C189.583 74.2407 189.329 74.346 189.141 74.5335C188.953 74.7211 188.848 74.9754 188.848 75.2407C188.848 75.5059 188.953 75.7602 189.141 75.9478C189.329 76.1353 189.583 76.2407 189.848 76.2407ZM233.628 77.7807C233.893 77.7807 234.148 77.6753 234.335 77.4878C234.523 77.3002 234.628 77.0459 234.628 76.7807C234.628 76.5154 234.523 76.2611 234.335 76.0735C234.148 75.886 233.893 75.7807 233.628 75.7807C233.363 75.7807 233.109 75.886 232.921 76.0735C232.733 76.2611 232.628 76.5154 232.628 76.7807C232.628 77.0459 232.733 77.3002 232.921 77.4878C233.109 77.6753 233.363 77.7807 233.628 77.7807ZM213.828 89.6607C214.093 89.6607 214.348 89.5553 214.535 89.3678C214.723 89.1802 214.828 88.9259 214.828 88.6607C214.828 88.3954 214.723 88.1411 214.535 87.9536C214.348 87.766 214.093 87.6607 213.828 87.6607C213.563 87.6607 213.309 87.766 213.121 87.9536C212.934 88.1411 212.828 88.3954 212.828 88.6607C212.828 88.9259 212.934 89.1802 213.121 89.3678C213.309 89.5553 213.563 89.6607 213.828 89.6607ZM247.928 89.8797C248.193 89.8797 248.448 89.7743 248.635 89.5868C248.823 89.3992 248.928 89.1449 248.928 88.8797C248.928 88.6144 248.823 88.3601 248.635 88.1725C248.448 87.985 248.193 87.8797 247.928 87.8797C247.663 87.8797 247.409 87.985 247.221 88.1725C247.034 88.3601 246.928 88.6144 246.928 88.8797C246.928 89.1449 247.034 89.3992 247.221 89.5868C247.409 89.7743 247.663 89.8797 247.928 89.8797Z" fill="white"/>
<path d="M285.366 189.157L275.994 198.529L298.123 220.659L307.496 211.286L285.366 189.157Z" fill="#541F9D"/>
<path fill-rule="evenodd" clip-rule="evenodd" d="M262.521 196.772L283.902 175.391L293.567 185.056C295.121 186.609 295.993 188.717 295.993 190.914C295.993 193.111 295.121 195.218 293.567 196.772L283.902 206.437C282.348 207.99 280.241 208.863 278.044 208.863C275.847 208.863 273.74 207.99 272.186 206.437L262.521 196.772Z" fill="#BD93F7"/>
<path d="M301.541 206.437L293.567 214.41C287.277 220.701 287.277 230.9 293.567 237.191L326.762 270.385C333.053 276.676 343.252 276.676 349.542 270.385L357.516 262.412C363.806 256.122 363.806 245.922 357.516 239.632L324.321 206.437C318.03 200.147 307.831 200.147 301.541 206.437Z" fill="#BD93F7"/>
<path d="M273.211 186.081C306.291 153.001 306.291 99.3677 273.211 66.2877C240.131 33.2077 186.498 33.2077 153.418 66.2877C120.338 99.3677 120.338 153.001 153.418 186.081C186.498 219.161 240.131 219.161 273.211 186.081Z" stroke="#9854F6" stroke-width="20.711"/>
<mask id="mask1_18006_5253" style="mask-type:alpha" maskUnits="userSpaceOnUse" x="138" y="32" width="194" height="169">
<path d="M213.272 200.64C254.462 200.64 287.852 167.25 287.852 126.06C287.852 112.202 337.337 68.2227 330.752 57.1047C317.766 35.1777 245.735 32.1197 218.404 32.1197C177.214 32.1197 138.692 84.8707 138.692 126.06C138.692 167.25 172.083 200.64 213.272 200.64Z" fill="white"/>
</mask>
<g mask="url(#mask1_18006_5253)">
<path fill-rule="evenodd" clip-rule="evenodd" d="M309.805 73.0347C310.269 77.3959 309.166 81.7799 306.694 85.4027L268.471 141.43L278.566 162.13C265.853 185.093 241.378 200.641 213.272 200.641C211.074 200.641 208.877 200.545 206.687 200.354L202.456 190.828L201.056 199.645C186.736 197.285 173.792 190.847 163.455 181.563L165.77 157.725C166.05 154.835 167.041 152.06 168.654 149.646C170.267 147.232 172.452 145.255 175.014 143.891L214.928 122.632L241.435 99.5187L265.896 78.3097L206.992 79.6407L206.219 65.9377L230.83 62.8457L289.475 56.6117C299.624 55.5317 308.726 62.8857 309.805 73.0347Z" fill="white"/>
<path fill-rule="evenodd" clip-rule="evenodd" d="M206.268 129.099L197.84 109.249L215.963 101.559L224.39 121.408" fill="white"/>
<path d="M206.268 129.099L197.84 109.249L215.963 101.559L224.39 121.408" stroke="black" stroke-width="1.32" stroke-linecap="round" stroke-linejoin="round"/>
<mask id="mask2_18006_5253" style="mask-type:alpha" maskUnits="userSpaceOnUse" x="197" y="101" width="27" height="32">
<path d="M197.84 109.248L215.961 101.559L223.121 118.421C225.246 123.427 222.913 129.207 217.909 131.33C212.905 133.454 207.125 131.117 205 126.111L197.84 109.248Z" fill="white"/>
</mask>
<g mask="url(#mask2_18006_5253)">
<path d="M218.379 112.456C229.683 107.659 235.251 95.3006 230.816 84.8536C226.38 74.4066 213.621 69.8266 202.317 74.6236C191.013 79.4216 185.445 91.7786 189.881 102.226C194.316 112.673 207.075 117.253 218.379 112.456Z" fill="black"/>
</g>
<path d="M193.075 65.6097L187.994 67.7667C180.293 71.0337 176.702 79.9277 179.973 87.6307L184.707 98.7817C187.978 106.485 196.871 110.08 204.571 106.812L209.652 104.656C217.352 101.388 220.943 92.4947 217.673 84.7917L212.938 73.6407C209.668 65.9377 200.775 62.3417 193.075 65.6097Z" fill="black"/>
<path fill-rule="evenodd" clip-rule="evenodd" d="M215.22 84.3277L216.945 83.2607C217.42 82.9671 217.957 82.7864 218.512 82.7327C219.068 82.679 219.629 82.7535 220.152 82.9507C220.675 83.1479 221.145 83.4624 221.527 83.8699C221.909 84.2775 222.192 84.7673 222.355 85.3017L222.404 85.4607C222.826 86.8414 222.821 88.3174 222.389 89.6952C221.958 91.073 221.12 92.2882 219.986 93.1817L219.232 93.7767L215.22 84.3277Z" fill="white" stroke="black" stroke-width="1.32" stroke-linecap="round" stroke-linejoin="round"/>
<path d="M218.404 86.3297L219.653 89.2716M219.189 88.1786L220.096 86.4837" stroke="black" stroke-width="1.32" stroke-linecap="round" stroke-linejoin="round"/>
<path fill-rule="evenodd" clip-rule="evenodd" d="M186.202 96.6447L184.237 97.1447C183.696 97.2821 183.193 97.542 182.768 97.9044C182.343 98.2668 182.007 98.722 181.785 99.2349C181.564 99.7477 181.463 100.305 181.491 100.862C181.519 101.42 181.675 101.964 181.946 102.453L182.027 102.599C182.727 103.861 183.793 104.883 185.084 105.53C186.375 106.177 187.831 106.419 189.262 106.224L190.214 106.095L186.202 96.6447Z" fill="white" stroke="black" stroke-width="1.32" stroke-linecap="round" stroke-linejoin="round"/>
<path d="M185.432 100.326L186.681 103.268M186.216 102.176L184.367 101.651" stroke="black" stroke-width="1.32" stroke-linecap="round" stroke-linejoin="round"/>
<path fill-rule="evenodd" clip-rule="evenodd" d="M213.31 79.8417L217.753 90.3057C221.155 98.3187 217.419 107.572 209.409 110.971C201.398 114.371 192.146 110.63 188.744 102.617L184.301 92.1527C180.899 84.1387 184.634 74.8867 192.645 71.4867C200.656 68.0877 209.908 71.8277 213.31 79.8417Z" fill="white" stroke="black" stroke-width="1.32" stroke-linecap="round" stroke-linejoin="round"/>
<path d="M206.442 103.025C207.749 102.471 208.782 101.422 209.315 100.107C209.848 98.792 209.836 97.3192 209.283 96.0126M201.119 93.7776L202.098 97.7426L204.287 97.2256" stroke="black" stroke-width="1.32" stroke-linecap="round" stroke-linejoin="round"/>
<path d="M193.353 95.7637C194.931 95.0947 195.899 93.8187 195.515 92.9137C195.131 92.0087 193.54 91.8177 191.962 92.4877C190.384 93.1577 189.417 94.4337 189.801 95.3387C190.185 96.2427 191.775 96.4337 193.353 95.7637Z" stroke="black" stroke-width="0.73" stroke-linecap="round" stroke-linejoin="round"/>
<path d="M193.353 95.7636C194.3 95.3616 194.756 94.3026 194.372 93.3976C193.988 92.4936 192.909 92.0856 191.962 92.4876C191.016 92.8896 190.56 93.9486 190.944 94.8526C191.328 95.7576 192.407 96.1656 193.353 95.7636Z" fill="black"/>
<path d="M209.18 89.0467C210.758 88.3767 211.726 87.1007 211.342 86.1957C210.957 85.2907 209.367 85.1007 207.789 85.7697C206.211 86.4397 205.243 87.7157 205.627 88.6207C206.011 89.5257 207.602 89.7157 209.18 89.0467Z" stroke="black" stroke-width="0.73" stroke-linecap="round" stroke-linejoin="round"/>
<path d="M209.18 89.0457C210.127 88.6437 210.583 87.5847 210.199 86.6807C209.815 85.7757 208.736 85.3677 207.789 85.7697C206.842 86.1717 206.386 87.2307 206.77 88.1347C207.154 89.0397 208.233 89.4477 209.18 89.0457Z" fill="black"/>
<path fill-rule="evenodd" clip-rule="evenodd" d="M197.021 60.5297C199.589 60.3077 201.096 61.5997 201.542 64.4027C204.633 63.6367 207.529 63.5107 210.23 64.0267C216.271 65.1807 218.536 71.7147 215.489 77.5297C215.752 78.9647 216.046 80.7127 216.372 82.7727C215.524 83.6677 214.924 84.0537 214.574 83.9307C213.451 83.5312 212.386 82.9816 211.41 82.2967C208.688 84.4077 204.884 86.0487 199.875 86.7257C192.622 87.7067 187.9 86.7707 185.71 83.9207C186.219 88.4747 186.081 92.4017 185.296 95.7007C179.066 92.1807 175.767 88.2347 175.4 83.8627C175.076 80.0057 176.645 77.8277 180.105 77.3267C181.034 71.8047 189.927 61.1417 197.021 60.5297Z" fill="black"/>
<path d="M185.296 95.7006C179.652 92.3746 175.767 88.2336 175.4 83.8626C175.076 80.0056 176.645 77.8266 180.105 77.3266C181.035 71.8036 189.927 61.1416 197.021 60.5296C199.588 60.3076 201.096 61.5986 201.542 64.4026C204.633 63.6356 207.529 63.5107 210.23 64.0267C215.533 65.0397 216.933 70.7787 215.378 75.9577C215.752 78.0317 216.01 80.6376 216.372 82.7716" stroke="white" stroke-width="0.88" stroke-linecap="round" stroke-linejoin="round"/>
<path d="M203.628 197.951L199.857 190.295" stroke="black" stroke-width="1.32" stroke-linecap="round" stroke-linejoin="round"/>
<path d="M196.449 138.214L223.915 141.632L233.844 116.38" stroke="black" stroke-width="1.32" stroke-linejoin="round"/>
<path fill-rule="evenodd" clip-rule="evenodd" d="M225.769 48.1497L228 93.6777L244.693 91.9496L230.243 108.878L290.274 236.338L309.373 200.171L275.207 138.86L310.363 84.3546C318.265 72.1046 314.741 55.7626 302.494 47.8527C297.673 44.7376 291.967 43.28 286.242 43.7006L225.769 48.1497Z" fill="#EAEBED" stroke="black" stroke-width="1.32" stroke-linejoin="round"/>
<path d="M243.768 93.1027L253.412 80.9047" stroke="black" stroke-width="1.32" stroke-linecap="round" stroke-linejoin="round"/>
<path fill-rule="evenodd" clip-rule="evenodd" d="M241.562 96.0107L247.049 128.479L255.069 126.883C256.02 126.694 257 126.703 257.947 126.91C258.894 127.117 259.788 127.518 260.573 128.087C261.358 128.656 262.017 129.381 262.509 130.216C263.001 131.052 263.315 131.98 263.431 132.943L270.387 190.295" fill="#EAEBED"/>
<path d="M241.562 96.0107L247.049 128.479L255.069 126.883C256.02 126.694 257 126.703 257.947 126.91C258.894 127.117 259.788 127.518 260.573 128.087C261.358 128.656 262.017 129.381 262.509 130.216C263.001 131.052 263.315 131.98 263.431 132.943L270.387 190.295" stroke="black" stroke-width="1.32" stroke-linejoin="round"/>
<path fill-rule="evenodd" clip-rule="evenodd" d="M195.196 132.88L248.808 254.976L228.913 264.112L201.741 208.549L197.843 225.646L159.935 212.289L165.655 157.999C165.969 155.016 167.005 152.154 168.673 149.661C170.341 147.168 172.591 145.119 175.229 143.691L195.196 132.88Z" fill="#EAEBED" stroke="black" stroke-width="1.32" stroke-linejoin="round"/>
<path d="M276.087 140.424L272.276 133.761" stroke="black" stroke-width="1.32" stroke-linecap="round" stroke-linejoin="round"/>
<path fill-rule="evenodd" clip-rule="evenodd" d="M181.967 139.497L201.505 162.106L196.597 173.67C196.135 174.759 195.974 175.953 196.131 177.126C196.289 178.299 196.758 179.408 197.491 180.338L236.048 229.23" fill="#EAEBED"/>
<path d="M181.967 139.497L201.505 162.106L196.597 173.67C196.135 174.759 195.974 175.953 196.131 177.126C196.289 178.299 196.758 179.408 197.491 180.338L236.048 229.23" stroke="black" stroke-width="1.32" stroke-linejoin="round"/>
</g>
<path fill-rule="evenodd" clip-rule="evenodd" d="M222.167 79.2217L174.612 83.0917C172.971 83.2248 171.341 82.7257 170.056 81.6966C168.771 80.6675 167.927 79.1862 167.698 77.5557C167.587 76.7677 167.632 75.9656 167.832 75.1952C168.031 74.4248 168.38 73.7011 168.858 73.0656C169.337 72.43 169.936 71.895 170.622 71.4911C171.308 71.0872 172.066 70.8224 172.854 70.7117L172.881 70.7077L224.701 63.6647" fill="white"/>
<path d="M222.167 79.2217L174.612 83.0917C172.971 83.2248 171.341 82.7257 170.056 81.6966C168.771 80.6675 167.927 79.1862 167.698 77.5557C167.587 76.7677 167.632 75.9656 167.832 75.1952C168.031 74.4248 168.38 73.7011 168.858 73.0656C169.337 72.43 169.936 71.895 170.622 71.4911C171.308 71.0872 172.066 70.8224 172.854 70.7117L172.881 70.7077L224.701 63.6647" stroke="black" stroke-width="1.716" stroke-linecap="round" stroke-linejoin="round"/>
<path fill-rule="evenodd" clip-rule="evenodd" d="M222.168 79.2206L188.838 81.2226C187.183 81.3217 185.552 80.7939 184.269 79.7442C182.986 78.6946 182.146 77.2002 181.915 75.5586C181.804 74.7719 181.85 73.971 182.049 73.2018C182.247 72.4326 182.596 71.7101 183.074 71.0755C183.552 70.4409 184.15 69.9066 184.835 69.5033C185.519 69.0999 186.276 68.8353 187.063 68.7246L187.099 68.7197L224.701 63.6656" fill="white"/>
<path d="M222.168 79.2206L188.838 81.2226C187.183 81.3217 185.552 80.7939 184.269 79.7442C182.986 78.6946 182.146 77.2002 181.915 75.5586C181.804 74.7719 181.85 73.971 182.049 73.2018C182.247 72.4326 182.596 71.7101 183.074 71.0755C183.552 70.4409 184.15 69.9066 184.835 69.5033C185.519 69.0999 186.276 68.8353 187.063 68.7246L187.099 68.7197L224.701 63.6656" stroke="black" stroke-width="1.32" stroke-linecap="round" stroke-linejoin="round"/>
<path d="M167.278 173.837C167.667 173.074 167.902 172.242 167.969 171.388C168.036 170.535 167.934 169.676 167.67 168.862C167.405 168.047 166.983 167.293 166.427 166.642C165.87 165.991 165.192 165.456 164.429 165.067C163.666 164.678 162.834 164.444 161.98 164.377C161.127 164.309 160.268 164.411 159.454 164.676C158.639 164.94 157.885 165.363 157.234 165.919C156.583 166.475 156.048 167.154 155.659 167.917L149.144 180.703C148.75 181.466 148.51 182.3 148.439 183.157C148.367 184.013 148.466 184.875 148.73 185.693C148.993 186.511 149.415 187.27 149.973 187.924C150.53 188.578 151.211 189.116 151.977 189.506C152.743 189.896 153.578 190.131 154.435 190.197C155.292 190.263 156.153 190.159 156.97 189.891C157.786 189.623 158.542 189.196 159.193 188.635C159.844 188.074 160.378 187.39 160.763 186.622L167.278 173.837Z" fill="white" stroke="black" stroke-width="1.32" stroke-linecap="round" stroke-linejoin="round"/>
<path d="M178.901 179.758C179.304 178.993 179.552 178.156 179.629 177.296C179.706 176.435 179.611 175.567 179.349 174.744C179.088 173.92 178.666 173.156 178.107 172.497C177.548 171.838 176.863 171.297 176.093 170.904C175.323 170.512 174.483 170.277 173.621 170.212C172.759 170.148 171.893 170.255 171.073 170.528C170.253 170.801 169.496 171.234 168.845 171.803C168.194 172.371 167.662 173.063 167.281 173.839L160.766 186.625C160.372 187.388 160.132 188.222 160.061 189.079C159.99 189.935 160.088 190.797 160.352 191.615C160.615 192.434 161.037 193.192 161.595 193.846C162.152 194.5 162.833 195.038 163.599 195.428C164.365 195.818 165.2 196.053 166.057 196.119C166.914 196.185 167.775 196.081 168.592 195.813C169.408 195.545 170.164 195.118 170.815 194.557C171.466 193.996 172 193.312 172.385 192.544L178.901 179.758Z" fill="white" stroke="black" stroke-width="1.32" stroke-linecap="round" stroke-linejoin="round"/>
<path d="M190.523 185.68C190.918 184.916 191.158 184.082 191.229 183.226C191.3 182.369 191.201 181.507 190.938 180.689C190.674 179.871 190.252 179.113 189.695 178.459C189.138 177.804 188.456 177.267 187.691 176.876C186.925 176.486 186.089 176.251 185.233 176.185C184.376 176.119 183.514 176.223 182.698 176.491C181.881 176.759 181.125 177.186 180.474 177.747C179.823 178.308 179.29 178.993 178.904 179.761L172.388 192.547C171.985 193.311 171.738 194.148 171.661 195.009C171.584 195.869 171.679 196.737 171.94 197.561C172.201 198.384 172.624 199.148 173.183 199.807C173.742 200.466 174.426 201.008 175.196 201.4C175.966 201.792 176.806 202.027 177.668 202.092C178.53 202.157 179.396 202.049 180.216 201.776C181.036 201.503 181.793 201.07 182.444 200.502C183.095 199.933 183.627 199.241 184.008 198.466L190.523 185.68Z" fill="white" stroke="black" stroke-width="1.32" stroke-linecap="round" stroke-linejoin="round"/>
<path d="M202.145 191.602C202.54 190.838 202.78 190.004 202.851 189.148C202.922 188.291 202.823 187.429 202.56 186.611C202.296 185.793 201.874 185.035 201.317 184.381C200.76 183.726 200.078 183.189 199.313 182.798C198.547 182.408 197.711 182.173 196.855 182.107C195.998 182.041 195.136 182.145 194.32 182.413C193.503 182.681 192.747 183.108 192.096 183.669C191.445 184.23 190.912 184.915 190.526 185.683L184.011 198.468C183.622 199.231 183.388 200.063 183.321 200.916C183.253 201.77 183.355 202.628 183.62 203.443C183.884 204.257 184.307 205.011 184.863 205.662C185.419 206.313 186.098 206.848 186.861 207.237C187.624 207.626 188.456 207.861 189.309 207.928C190.163 207.995 191.021 207.893 191.836 207.629C192.65 207.364 193.404 206.942 194.055 206.386C194.706 205.829 195.241 205.151 195.63 204.388L202.145 191.602Z" fill="white" stroke="black" stroke-width="1.32" stroke-linecap="round" stroke-linejoin="round"/>
</g>
<path d="M4.49574 287.033L0.390625 272.488H3.22443L5.84517 283.177H5.98011L8.77841 272.488H11.3565L14.1619 283.184H14.2898L16.9105 272.488H19.7443L15.6392 287.033H13.0398L10.1278 276.827H10.0142L7.09517 287.033H4.49574ZM25.174 287.247C24.0803 287.247 23.1357 287.019 22.3402 286.565C21.5495 286.105 20.9411 285.457 20.5149 284.619C20.0888 283.776 19.8757 282.784 19.8757 281.643C19.8757 280.521 20.0888 279.536 20.5149 278.688C20.9458 277.836 21.5471 277.173 22.3189 276.7C23.0907 276.221 23.9974 275.982 25.0391 275.982C25.7114 275.982 26.3459 276.091 26.9425 276.309C27.5438 276.522 28.0741 276.854 28.5334 277.303C28.9974 277.753 29.362 278.326 29.6271 279.022C29.8923 279.713 30.0249 280.537 30.0249 281.494V282.282H21.0831V280.549H27.5604C27.5556 280.057 27.4491 279.619 27.2408 279.235C27.0324 278.847 26.7412 278.541 26.3672 278.319C25.9979 278.096 25.567 277.985 25.0746 277.985C24.549 277.985 24.0874 278.113 23.6896 278.369C23.2919 278.62 22.9818 278.951 22.7592 279.363C22.5414 279.77 22.4302 280.218 22.4254 280.705V282.218C22.4254 282.853 22.5414 283.397 22.7734 283.852C23.0054 284.301 23.3298 284.647 23.7464 284.889C24.1631 285.125 24.6508 285.244 25.2095 285.244C25.5836 285.244 25.9221 285.192 26.2251 285.087C26.5282 284.979 26.791 284.82 27.0135 284.612C27.236 284.403 27.4041 284.145 27.5178 283.837L29.9183 284.107C29.7668 284.742 29.478 285.296 29.0518 285.769C28.6304 286.238 28.0907 286.603 27.4325 286.863C26.7744 287.119 26.0215 287.247 25.174 287.247ZM41.2092 287.225C40.3522 287.225 39.5851 287.005 38.908 286.565C38.2309 286.124 37.6959 285.485 37.3029 284.647C36.9099 283.809 36.7134 282.791 36.7134 281.593C36.7134 280.381 36.9123 279.358 37.31 278.525C37.7125 277.687 38.2546 277.055 38.9364 276.629C39.6183 276.198 40.3782 275.982 41.2163 275.982C41.8555 275.982 42.381 276.091 42.793 276.309C43.2049 276.522 43.5316 276.78 43.7731 277.083C44.0146 277.381 44.2016 277.663 44.3342 277.928H44.4407V272.488H47.0188V287.033H44.4904V285.315H44.3342C44.2016 285.58 44.0098 285.862 43.7589 286.16C43.5079 286.453 43.1765 286.704 42.7646 286.913C42.3526 287.121 41.8342 287.225 41.2092 287.225ZM41.9265 285.116C42.471 285.116 42.935 284.969 43.3185 284.675C43.7021 284.377 43.9933 283.963 44.1921 283.433C44.391 282.902 44.4904 282.284 44.4904 281.579C44.4904 280.873 44.391 280.26 44.1921 279.739C43.998 279.219 43.7092 278.814 43.3256 278.525C42.9469 278.236 42.4805 278.092 41.9265 278.092C41.3536 278.092 40.8754 278.241 40.4918 278.539C40.1083 278.837 39.8195 279.249 39.6254 279.775C39.4312 280.3 39.3342 280.902 39.3342 281.579C39.3342 282.261 39.4312 282.869 39.6254 283.404C39.8242 283.934 40.1154 284.354 40.4989 284.661C40.8872 284.964 41.363 285.116 41.9265 285.116ZM54.517 287.247C53.4517 287.247 52.5284 287.012 51.7472 286.543C50.9659 286.075 50.3598 285.419 49.929 284.576C49.5028 283.733 49.2898 282.748 49.2898 281.622C49.2898 280.495 49.5028 279.507 49.929 278.66C50.3598 277.812 50.9659 277.154 51.7472 276.685C52.5284 276.217 53.4517 275.982 54.517 275.982C55.5824 275.982 56.5057 276.217 57.2869 276.685C58.0682 277.154 58.6719 277.812 59.098 278.66C59.5289 279.507 59.7443 280.495 59.7443 281.622C59.7443 282.748 59.5289 283.733 59.098 284.576C58.6719 285.419 58.0682 286.075 57.2869 286.543C56.5057 287.012 55.5824 287.247 54.517 287.247ZM54.5312 285.187C55.1089 285.187 55.5919 285.028 55.9801 284.711C56.3684 284.389 56.6572 283.958 56.8466 283.418C57.0407 282.879 57.1378 282.277 57.1378 281.614C57.1378 280.947 57.0407 280.343 56.8466 279.803C56.6572 279.259 56.3684 278.826 55.9801 278.504C55.5919 278.182 55.1089 278.021 54.5312 278.021C53.9394 278.021 53.447 278.182 53.054 278.504C52.6657 278.826 52.3745 279.259 52.1804 279.803C51.991 280.343 51.8963 280.947 51.8963 281.614C51.8963 282.277 51.991 282.879 52.1804 283.418C52.3745 283.958 52.6657 284.389 53.054 284.711C53.447 285.028 53.9394 285.187 54.5312 285.187ZM64.4975 280.641V287.033H61.9265V276.124H64.3839V277.978H64.5117C64.7627 277.367 65.1628 276.882 65.712 276.522C66.266 276.162 66.9502 275.982 67.7646 275.982C68.5174 275.982 69.1732 276.143 69.7319 276.465C70.2953 276.787 70.7309 277.254 71.0387 277.864C71.3512 278.475 71.5051 279.216 71.5004 280.087V287.033H68.9293V280.485C68.9293 279.756 68.7399 279.185 68.3612 278.774C67.9871 278.362 67.4686 278.156 66.8058 278.156C66.3559 278.156 65.9558 278.255 65.6055 278.454C65.2598 278.648 64.9876 278.93 64.7887 279.299C64.5946 279.668 64.4975 280.116 64.4975 280.641ZM75.8896 272.488V277.843H73.9293V272.488H75.8896ZM83.8192 276.124V278.113H77.5479V276.124H83.8192ZM79.0962 273.511H81.6673V283.752C81.6673 284.098 81.7193 284.363 81.8235 284.548C81.9324 284.728 82.0745 284.851 82.2496 284.917C82.4248 284.983 82.619 285.016 82.832 285.016C82.993 285.016 83.1398 285.005 83.2724 284.981C83.4097 284.957 83.5138 284.936 83.5849 284.917L84.0181 286.927C83.8808 286.974 83.6843 287.026 83.4286 287.083C83.1777 287.14 82.8699 287.173 82.5053 287.183C81.8614 287.202 81.2814 287.104 80.7653 286.891C80.2492 286.674 79.8396 286.337 79.5366 285.883C79.2383 285.428 79.0915 284.86 79.0962 284.178V273.511ZM93.5014 280.641V287.033H90.9304V272.488H93.4446V277.978H93.5724C93.8281 277.363 94.2235 276.877 94.7585 276.522C95.2983 276.162 95.9848 275.982 96.8182 275.982C97.5758 275.982 98.2363 276.141 98.7997 276.458C99.3632 276.775 99.7988 277.239 100.107 277.85C100.419 278.461 100.575 279.207 100.575 280.087V287.033H98.0043V280.485C98.0043 279.751 97.8149 279.181 97.4361 278.774C97.062 278.362 96.5365 278.156 95.8594 278.156C95.4048 278.156 94.9976 278.255 94.6378 278.454C94.2827 278.648 94.0033 278.93 93.7997 279.299C93.6009 279.668 93.5014 280.116 93.5014 280.641ZM106.335 287.254C105.644 287.254 105.021 287.131 104.467 286.884C103.918 286.633 103.482 286.264 103.161 285.776C102.843 285.289 102.685 284.687 102.685 283.972C102.685 283.357 102.798 282.848 103.026 282.445C103.253 282.043 103.563 281.721 103.956 281.479C104.349 281.238 104.792 281.056 105.284 280.933C105.781 280.805 106.295 280.712 106.825 280.656C107.464 280.589 107.983 280.53 108.381 280.478C108.778 280.421 109.067 280.336 109.247 280.222C109.432 280.104 109.524 279.922 109.524 279.675V279.633C109.524 279.098 109.366 278.684 109.048 278.39C108.731 278.096 108.274 277.95 107.678 277.95C107.048 277.95 106.548 278.087 106.179 278.362C105.814 278.636 105.568 278.961 105.44 279.335L103.04 278.994C103.229 278.331 103.542 277.777 103.977 277.332C104.413 276.882 104.946 276.546 105.575 276.323C106.205 276.096 106.901 275.982 107.663 275.982C108.189 275.982 108.712 276.044 109.233 276.167C109.754 276.29 110.23 276.494 110.661 276.778C111.091 277.057 111.437 277.438 111.697 277.921C111.963 278.404 112.095 279.008 112.095 279.732V287.033H109.624V285.535H109.538C109.382 285.838 109.162 286.122 108.878 286.387C108.598 286.648 108.246 286.858 107.82 287.019C107.398 287.175 106.903 287.254 106.335 287.254ZM107.003 285.364C107.519 285.364 107.966 285.263 108.345 285.059C108.724 284.851 109.015 284.576 109.219 284.235C109.427 283.894 109.531 283.523 109.531 283.12V281.835C109.451 281.901 109.313 281.962 109.119 282.019C108.93 282.076 108.717 282.126 108.48 282.168C108.243 282.211 108.009 282.249 107.777 282.282C107.545 282.315 107.344 282.344 107.173 282.367C106.79 282.419 106.446 282.505 106.143 282.623C105.84 282.741 105.601 282.907 105.426 283.12C105.251 283.328 105.163 283.598 105.163 283.93C105.163 284.403 105.336 284.761 105.682 285.002C106.027 285.244 106.468 285.364 107.003 285.364ZM124.034 276.124L120.149 287.033H117.308L113.423 276.124H116.165L118.672 284.228H118.786L121.3 276.124H124.034ZM130.272 287.247C129.178 287.247 128.233 287.019 127.438 286.565C126.647 286.105 126.039 285.457 125.613 284.619C125.186 283.776 124.973 282.784 124.973 281.643C124.973 280.521 125.186 279.536 125.613 278.688C126.043 277.836 126.645 277.173 127.417 276.7C128.188 276.221 129.095 275.982 130.137 275.982C130.809 275.982 131.444 276.091 132.04 276.309C132.641 276.522 133.172 276.854 133.631 277.303C134.095 277.753 134.46 278.326 134.725 279.022C134.99 279.713 135.123 280.537 135.123 281.494V282.282H126.181V280.549H132.658C132.653 280.057 132.547 279.619 132.338 279.235C132.13 278.847 131.839 278.541 131.465 278.319C131.096 278.096 130.665 277.985 130.172 277.985C129.647 277.985 129.185 278.113 128.787 278.369C128.39 278.62 128.079 278.951 127.857 279.363C127.639 279.77 127.528 280.218 127.523 280.705V282.218C127.523 282.853 127.639 283.397 127.871 283.852C128.103 284.301 128.427 284.647 128.844 284.889C129.261 285.125 129.748 285.244 130.307 285.244C130.681 285.244 131.02 285.192 131.323 285.087C131.626 284.979 131.889 284.82 132.111 284.612C132.334 284.403 132.502 284.145 132.615 283.837L135.016 284.107C134.864 284.742 134.576 285.296 134.15 285.769C133.728 286.238 133.188 286.603 132.53 286.863C131.872 287.119 131.119 287.247 130.272 287.247ZM150.881 279.008L148.537 279.264C148.471 279.027 148.355 278.804 148.189 278.596C148.028 278.388 147.81 278.22 147.536 278.092C147.261 277.964 146.925 277.9 146.527 277.9C145.992 277.9 145.542 278.016 145.178 278.248C144.818 278.48 144.64 278.781 144.645 279.15C144.64 279.467 144.756 279.725 144.993 279.924C145.234 280.123 145.632 280.286 146.186 280.414L148.047 280.812C149.079 281.034 149.846 281.387 150.348 281.87C150.855 282.353 151.11 282.985 151.115 283.766C151.11 284.453 150.909 285.059 150.511 285.585C150.118 286.105 149.571 286.513 148.871 286.806C148.17 287.1 147.365 287.247 146.456 287.247C145.121 287.247 144.046 286.967 143.232 286.408C142.417 285.845 141.932 285.061 141.776 284.058L144.283 283.816C144.396 284.309 144.638 284.68 145.007 284.931C145.376 285.182 145.857 285.308 146.449 285.308C147.06 285.308 147.55 285.182 147.919 284.931C148.293 284.68 148.48 284.37 148.48 284.001C148.48 283.688 148.359 283.43 148.118 283.227C147.881 283.023 147.512 282.867 147.01 282.758L145.149 282.367C144.103 282.149 143.329 281.783 142.827 281.266C142.325 280.746 142.076 280.087 142.081 279.292C142.076 278.62 142.259 278.037 142.628 277.545C143.002 277.048 143.52 276.664 144.183 276.394C144.851 276.12 145.62 275.982 146.491 275.982C147.77 275.982 148.776 276.255 149.51 276.799C150.249 277.344 150.705 278.08 150.881 279.008ZM160.188 282.445V276.124H162.759V287.033H160.266V285.095H160.153C159.906 285.705 159.502 286.205 158.938 286.593C158.379 286.981 157.691 287.175 156.871 287.175C156.156 287.175 155.524 287.017 154.975 286.7C154.431 286.378 154.004 285.911 153.697 285.3C153.389 284.685 153.235 283.942 153.235 283.07V276.124H155.806V282.673C155.806 283.364 155.996 283.913 156.374 284.32C156.753 284.728 157.25 284.931 157.866 284.931C158.245 284.931 158.612 284.839 158.967 284.654C159.322 284.47 159.613 284.195 159.84 283.83C160.072 283.461 160.188 282.999 160.188 282.445ZM170.162 287.247C169.073 287.247 168.137 287.007 167.356 286.529C166.58 286.051 165.981 285.39 165.559 284.548C165.143 283.7 164.934 282.725 164.934 281.622C164.934 280.514 165.147 279.536 165.574 278.688C166 277.836 166.601 277.173 167.377 276.7C168.159 276.221 169.082 275.982 170.147 275.982C171.033 275.982 171.816 276.146 172.498 276.472C173.185 276.794 173.732 277.251 174.139 277.843C174.546 278.43 174.778 279.117 174.835 279.903H172.377C172.278 279.377 172.041 278.939 171.667 278.589C171.298 278.234 170.803 278.056 170.183 278.056C169.657 278.056 169.196 278.198 168.798 278.482C168.4 278.762 168.09 279.164 167.868 279.69C167.65 280.215 167.541 280.845 167.541 281.579C167.541 282.322 167.65 282.961 167.868 283.497C168.085 284.027 168.391 284.436 168.784 284.725C169.181 285.009 169.648 285.151 170.183 285.151C170.562 285.151 170.9 285.08 171.199 284.938C171.502 284.791 171.755 284.581 171.958 284.306C172.162 284.032 172.302 283.698 172.377 283.305H174.835C174.773 284.077 174.546 284.761 174.153 285.357C173.76 285.949 173.225 286.413 172.548 286.749C171.871 287.081 171.075 287.247 170.162 287.247ZM179.517 280.641V287.033H176.946V272.488H179.46V277.978H179.588C179.844 277.363 180.239 276.877 180.774 276.522C181.314 276.162 182 275.982 182.834 275.982C183.591 275.982 184.252 276.141 184.815 276.458C185.379 276.775 185.814 277.239 186.122 277.85C186.435 278.461 186.591 279.207 186.591 280.087V287.033H184.02V280.485C184.02 279.751 183.83 279.181 183.452 278.774C183.078 278.362 182.552 278.156 181.875 278.156C181.42 278.156 181.013 278.255 180.653 278.454C180.298 278.648 180.019 278.93 179.815 279.299C179.616 279.668 179.517 280.116 179.517 280.641ZM194.173 287.033V276.124H196.63V277.978H196.758C196.985 277.353 197.362 276.865 197.887 276.515C198.413 276.16 199.04 275.982 199.769 275.982C200.508 275.982 201.13 276.162 201.637 276.522C202.148 276.877 202.508 277.363 202.717 277.978H202.83C203.072 277.372 203.479 276.889 204.052 276.529C204.629 276.165 205.314 275.982 206.104 275.982C207.108 275.982 207.927 276.3 208.562 276.934C209.196 277.568 209.513 278.494 209.513 279.711V287.033H206.935V280.109C206.935 279.432 206.755 278.937 206.396 278.624C206.036 278.307 205.595 278.149 205.075 278.149C204.454 278.149 203.969 278.343 203.619 278.731C203.273 279.114 203.1 279.614 203.1 280.229V287.033H200.579V280.002C200.579 279.439 200.408 278.989 200.067 278.653C199.731 278.317 199.291 278.149 198.746 278.149C198.377 278.149 198.041 278.243 197.738 278.433C197.435 278.617 197.193 278.88 197.013 279.221C196.834 279.557 196.744 279.95 196.744 280.4V287.033H194.173ZM216.88 287.247C215.815 287.247 214.892 287.012 214.11 286.543C213.329 286.075 212.723 285.419 212.292 284.576C211.866 283.733 211.653 282.748 211.653 281.622C211.653 280.495 211.866 279.507 212.292 278.66C212.723 277.812 213.329 277.154 214.11 276.685C214.892 276.217 215.815 275.982 216.88 275.982C217.946 275.982 218.869 276.217 219.65 276.685C220.431 277.154 221.035 277.812 221.461 278.66C221.892 279.507 222.108 280.495 222.108 281.622C222.108 282.748 221.892 283.733 221.461 284.576C221.035 285.419 220.431 286.075 219.65 286.543C218.869 287.012 217.946 287.247 216.88 287.247ZM216.895 285.187C217.472 285.187 217.955 285.028 218.343 284.711C218.732 284.389 219.02 283.958 219.21 283.418C219.404 282.879 219.501 282.277 219.501 281.614C219.501 280.947 219.404 280.343 219.21 279.803C219.02 279.259 218.732 278.826 218.343 278.504C217.955 278.182 217.472 278.021 216.895 278.021C216.303 278.021 215.81 278.182 215.417 278.504C215.029 278.826 214.738 279.259 214.544 279.803C214.354 280.343 214.26 280.947 214.26 281.614C214.26 282.277 214.354 282.879 214.544 283.418C214.738 283.958 215.029 284.389 215.417 284.711C215.81 285.028 216.303 285.187 216.895 285.187ZM233.663 276.124L229.778 287.033H226.937L223.052 276.124H225.794L228.301 284.228H228.414L230.929 276.124H233.663ZM235.442 287.033V276.124H238.013V287.033H235.442ZM236.735 274.576C236.328 274.576 235.977 274.441 235.684 274.171C235.39 273.897 235.243 273.568 235.243 273.184C235.243 272.796 235.39 272.467 235.684 272.197C235.977 271.922 236.328 271.785 236.735 271.785C237.147 271.785 237.497 271.922 237.786 272.197C238.079 272.467 238.226 272.796 238.226 273.184C238.226 273.568 238.079 273.897 237.786 274.171C237.497 274.441 237.147 274.576 236.735 274.576ZM245.487 287.247C244.393 287.247 243.448 287.019 242.653 286.565C241.862 286.105 241.254 285.457 240.827 284.619C240.401 283.776 240.188 282.784 240.188 281.643C240.188 280.521 240.401 279.536 240.827 278.688C241.258 277.836 241.86 277.173 242.631 276.7C243.403 276.221 244.31 275.982 245.352 275.982C246.024 275.982 246.658 276.091 247.255 276.309C247.856 276.522 248.387 276.854 248.846 277.303C249.31 277.753 249.674 278.326 249.94 279.022C250.205 279.713 250.337 280.537 250.337 281.494V282.282H241.396V280.549H247.873C247.868 280.057 247.762 279.619 247.553 279.235C247.345 278.847 247.054 278.541 246.68 278.319C246.31 278.096 245.879 277.985 245.387 277.985C244.862 277.985 244.4 278.113 244.002 278.369C243.604 278.62 243.294 278.951 243.072 279.363C242.854 279.77 242.743 280.218 242.738 280.705V282.218C242.738 282.853 242.854 283.397 243.086 283.852C243.318 284.301 243.642 284.647 244.059 284.889C244.476 285.125 244.963 285.244 245.522 285.244C245.896 285.244 246.235 285.192 246.538 285.087C246.841 284.979 247.103 284.82 247.326 284.612C247.549 284.403 247.717 284.145 247.83 283.837L250.231 284.107C250.079 284.742 249.79 285.296 249.364 285.769C248.943 286.238 248.403 286.603 247.745 286.863C247.087 287.119 246.334 287.247 245.487 287.247ZM261.135 279.008L258.791 279.264C258.725 279.027 258.609 278.804 258.443 278.596C258.282 278.388 258.064 278.22 257.789 278.092C257.515 277.964 257.179 277.9 256.781 277.9C256.246 277.9 255.796 278.016 255.431 278.248C255.072 278.48 254.894 278.781 254.899 279.15C254.894 279.467 255.01 279.725 255.247 279.924C255.488 280.123 255.886 280.286 256.44 280.414L258.301 280.812C259.333 281.034 260.1 281.387 260.602 281.87C261.109 282.353 261.364 282.985 261.369 283.766C261.364 284.453 261.163 285.059 260.765 285.585C260.372 286.105 259.825 286.513 259.125 286.806C258.424 287.1 257.619 287.247 256.71 287.247C255.375 287.247 254.3 286.967 253.485 286.408C252.671 285.845 252.186 285.061 252.029 284.058L254.537 283.816C254.65 284.309 254.892 284.68 255.261 284.931C255.63 285.182 256.111 285.308 256.703 285.308C257.314 285.308 257.804 285.182 258.173 284.931C258.547 284.68 258.734 284.37 258.734 284.001C258.734 283.688 258.613 283.43 258.372 283.227C258.135 283.023 257.766 282.867 257.264 282.758L255.403 282.367C254.357 282.149 253.583 281.783 253.081 281.266C252.579 280.746 252.33 280.087 252.335 279.292C252.33 278.62 252.512 278.037 252.882 277.545C253.256 277.048 253.774 276.664 254.437 276.394C255.105 276.12 255.874 275.982 256.745 275.982C258.024 275.982 259.03 276.255 259.764 276.799C260.502 277.344 260.959 278.08 261.135 279.008ZM266.507 285.045L266.415 285.826C266.349 286.423 266.23 287.029 266.06 287.644C265.894 288.265 265.719 288.835 265.534 289.356C265.35 289.877 265.201 290.286 265.087 290.585H263.354C263.42 290.296 263.51 289.903 263.624 289.406C263.742 288.908 263.856 288.35 263.965 287.729C264.074 287.109 264.147 286.479 264.185 285.84L264.235 285.045H266.507ZM276.47 272.488V287.033H273.899V272.488H276.47ZM283.873 287.247C282.807 287.247 281.884 287.012 281.103 286.543C280.321 286.075 279.715 285.419 279.284 284.576C278.858 283.733 278.645 282.748 278.645 281.622C278.645 280.495 278.858 279.507 279.284 278.66C279.715 277.812 280.321 277.154 281.103 276.685C281.884 276.217 282.807 275.982 283.873 275.982C284.938 275.982 285.861 276.217 286.642 276.685C287.424 277.154 288.027 277.812 288.453 278.66C288.884 279.507 289.1 280.495 289.1 281.622C289.1 282.748 288.884 283.733 288.453 284.576C288.027 285.419 287.424 286.075 286.642 286.543C285.861 287.012 284.938 287.247 283.873 287.247ZM283.887 285.187C284.464 285.187 284.947 285.028 285.336 284.711C285.724 284.389 286.013 283.958 286.202 283.418C286.396 282.879 286.493 282.277 286.493 281.614C286.493 280.947 286.396 280.343 286.202 279.803C286.013 279.259 285.724 278.826 285.336 278.504C284.947 278.182 284.464 278.021 283.887 278.021C283.295 278.021 282.802 278.182 282.409 278.504C282.021 278.826 281.73 279.259 281.536 279.803C281.346 280.343 281.252 280.947 281.252 281.614C281.252 282.277 281.346 282.879 281.536 283.418C281.73 283.958 282.021 284.389 282.409 284.711C282.802 285.028 283.295 285.187 283.887 285.187ZM296.04 287.247C294.975 287.247 294.052 287.012 293.271 286.543C292.489 286.075 291.883 285.419 291.452 284.576C291.026 283.733 290.813 282.748 290.813 281.622C290.813 280.495 291.026 279.507 291.452 278.66C291.883 277.812 292.489 277.154 293.271 276.685C294.052 276.217 294.975 275.982 296.04 275.982C297.106 275.982 298.029 276.217 298.81 276.685C299.592 277.154 300.195 277.812 300.621 278.66C301.052 279.507 301.268 280.495 301.268 281.622C301.268 282.748 301.052 283.733 300.621 284.576C300.195 285.419 299.592 286.075 298.81 286.543C298.029 287.012 297.106 287.247 296.04 287.247ZM296.055 285.187C296.632 285.187 297.115 285.028 297.504 284.711C297.892 284.389 298.181 283.958 298.37 283.418C298.564 282.879 298.661 282.277 298.661 281.614C298.661 280.947 298.564 280.343 298.37 279.803C298.181 279.259 297.892 278.826 297.504 278.504C297.115 278.182 296.632 278.021 296.055 278.021C295.463 278.021 294.97 278.182 294.577 278.504C294.189 278.826 293.898 279.259 293.704 279.803C293.514 280.343 293.42 280.947 293.42 281.614C293.42 282.277 293.514 282.879 293.704 283.418C293.898 283.958 294.189 284.389 294.577 284.711C294.97 285.028 295.463 285.187 296.055 285.187ZM305.794 283.61L305.787 280.506H306.199L310.119 276.124H313.123L308.301 281.494H307.768L305.794 283.61ZM303.45 287.033V272.488H306.021V287.033H303.45ZM310.297 287.033L306.745 282.069L308.478 280.258L313.372 287.033H310.297ZM325.323 276.124V278.113H318.874V276.124H325.323ZM320.487 287.033V275.095C320.487 274.361 320.638 273.75 320.941 273.262C321.249 272.774 321.661 272.41 322.177 272.168C322.693 271.927 323.266 271.806 323.896 271.806C324.341 271.806 324.736 271.842 325.082 271.913C325.427 271.984 325.683 272.048 325.849 272.104L325.337 274.093C325.228 274.06 325.091 274.027 324.925 273.994C324.76 273.956 324.575 273.937 324.371 273.937C323.893 273.937 323.555 274.053 323.356 274.285C323.162 274.512 323.065 274.839 323.065 275.265V287.033H320.487ZM331.685 287.247C330.62 287.247 329.696 287.012 328.915 286.543C328.134 286.075 327.528 285.419 327.097 284.576C326.671 283.733 326.458 282.748 326.458 281.622C326.458 280.495 326.671 279.507 327.097 278.66C327.528 277.812 328.134 277.154 328.915 276.685C329.696 276.217 330.62 275.982 331.685 275.982C332.75 275.982 333.674 276.217 334.455 276.685C335.236 277.154 335.84 277.812 336.266 278.66C336.697 279.507 336.912 280.495 336.912 281.622C336.912 282.748 336.697 283.733 336.266 284.576C335.84 285.419 335.236 286.075 334.455 286.543C333.674 287.012 332.75 287.247 331.685 287.247ZM331.699 285.187C332.277 285.187 332.76 285.028 333.148 284.711C333.536 284.389 333.825 283.958 334.015 283.418C334.209 282.879 334.306 282.277 334.306 281.614C334.306 280.947 334.209 280.343 334.015 279.803C333.825 279.259 333.536 278.826 333.148 278.504C332.76 278.182 332.277 278.021 331.699 278.021C331.107 278.021 330.615 278.182 330.222 278.504C329.834 278.826 329.542 279.259 329.348 279.803C329.159 280.343 329.064 280.947 329.064 281.614C329.064 282.277 329.159 282.879 329.348 283.418C329.542 283.958 329.834 284.389 330.222 284.711C330.615 285.028 331.107 285.187 331.699 285.187ZM339.094 287.033V276.124H341.587V277.943H341.701C341.9 277.313 342.241 276.827 342.724 276.487C343.211 276.141 343.768 275.968 344.393 275.968C344.535 275.968 344.693 275.975 344.869 275.989C345.049 275.999 345.198 276.015 345.316 276.039V278.404C345.207 278.366 345.034 278.333 344.798 278.305C344.566 278.272 344.341 278.255 344.123 278.255C343.654 278.255 343.233 278.357 342.859 278.56C342.489 278.759 342.198 279.036 341.985 279.391C341.772 279.747 341.665 280.156 341.665 280.62V287.033H339.094ZM355.124 287.254C354.433 287.254 353.81 287.131 353.256 286.884C352.707 286.633 352.272 286.264 351.95 285.776C351.632 285.289 351.474 284.687 351.474 283.972C351.474 283.357 351.587 282.848 351.815 282.445C352.042 282.043 352.352 281.721 352.745 281.479C353.138 281.238 353.581 281.056 354.073 280.933C354.57 280.805 355.084 280.712 355.614 280.656C356.254 280.589 356.772 280.53 357.17 280.478C357.567 280.421 357.856 280.336 358.036 280.222C358.221 280.104 358.313 279.922 358.313 279.675V279.633C358.313 279.098 358.155 278.684 357.837 278.39C357.52 278.096 357.063 277.95 356.467 277.95C355.837 277.95 355.337 278.087 354.968 278.362C354.603 278.636 354.357 278.961 354.229 279.335L351.829 278.994C352.018 278.331 352.331 277.777 352.766 277.332C353.202 276.882 353.735 276.546 354.364 276.323C354.994 276.096 355.69 275.982 356.452 275.982C356.978 275.982 357.501 276.044 358.022 276.167C358.543 276.29 359.019 276.494 359.45 276.778C359.88 277.057 360.226 277.438 360.487 277.921C360.752 278.404 360.884 279.008 360.884 279.732V287.033H358.413V285.535H358.327C358.171 285.838 357.951 286.122 357.667 286.387C357.388 286.648 357.035 286.858 356.609 287.019C356.187 287.175 355.692 287.254 355.124 287.254ZM355.792 285.364C356.308 285.364 356.755 285.263 357.134 285.059C357.513 284.851 357.804 284.576 358.008 284.235C358.216 283.894 358.32 283.523 358.32 283.12V281.835C358.24 281.901 358.103 281.962 357.908 282.019C357.719 282.076 357.506 282.126 357.269 282.168C357.032 282.211 356.798 282.249 356.566 282.282C356.334 282.315 356.133 282.344 355.962 282.367C355.579 282.419 355.236 282.505 354.933 282.623C354.629 282.741 354.39 282.907 354.215 283.12C354.04 283.328 353.952 283.598 353.952 283.93C353.952 284.403 354.125 284.761 354.471 285.002C354.817 285.244 355.257 285.364 355.792 285.364ZM366.04 280.641V287.033H363.469V276.124H365.927V277.978H366.055C366.306 277.367 366.706 276.882 367.255 276.522C367.809 276.162 368.493 275.982 369.308 275.982C370.06 275.982 370.716 276.143 371.275 276.465C371.838 276.787 372.274 277.254 372.582 277.864C372.894 278.475 373.048 279.216 373.043 280.087V287.033H370.472V280.485C370.472 279.756 370.283 279.185 369.904 278.774C369.53 278.362 369.012 278.156 368.349 278.156C367.899 278.156 367.499 278.255 367.148 278.454C366.803 278.648 366.531 278.93 366.332 279.299C366.138 279.668 366.04 280.116 366.04 280.641ZM380.415 287.247C379.35 287.247 378.427 287.012 377.646 286.543C376.864 286.075 376.258 285.419 375.827 284.576C375.401 283.733 375.188 282.748 375.188 281.622C375.188 280.495 375.401 279.507 375.827 278.66C376.258 277.812 376.864 277.154 377.646 276.685C378.427 276.217 379.35 275.982 380.415 275.982C381.481 275.982 382.404 276.217 383.185 276.685C383.967 277.154 384.57 277.812 384.996 278.66C385.427 279.507 385.643 280.495 385.643 281.622C385.643 282.748 385.427 283.733 384.996 284.576C384.57 285.419 383.967 286.075 383.185 286.543C382.404 287.012 381.481 287.247 380.415 287.247ZM380.43 285.187C381.007 285.187 381.49 285.028 381.879 284.711C382.267 284.389 382.556 283.958 382.745 283.418C382.939 282.879 383.036 282.277 383.036 281.614C383.036 280.947 382.939 280.343 382.745 279.803C382.556 279.259 382.267 278.826 381.879 278.504C381.49 278.182 381.007 278.021 380.43 278.021C379.838 278.021 379.345 278.182 378.952 278.504C378.564 278.826 378.273 279.259 378.079 279.803C377.889 280.343 377.795 280.947 377.795 281.614C377.795 282.277 377.889 282.879 378.079 283.418C378.273 283.958 378.564 284.389 378.952 284.711C379.345 285.028 379.838 285.187 380.43 285.187ZM393.272 276.124V278.113H387.001V276.124H393.272ZM388.549 273.511H391.12V283.752C391.12 284.098 391.172 284.363 391.277 284.548C391.386 284.728 391.528 284.851 391.703 284.917C391.878 284.983 392.072 285.016 392.285 285.016C392.446 285.016 392.593 285.005 392.725 284.981C392.863 284.957 392.967 284.936 393.038 284.917L393.471 286.927C393.334 286.974 393.137 287.026 392.882 287.083C392.631 287.14 392.323 287.173 391.958 287.183C391.315 287.202 390.734 287.104 390.218 286.891C389.702 286.674 389.293 286.337 388.99 285.883C388.691 285.428 388.545 284.86 388.549 284.178V273.511ZM398.228 280.641V287.033H395.657V272.488H398.171V277.978H398.299C398.555 277.363 398.95 276.877 399.485 276.522C400.025 276.162 400.711 275.982 401.545 275.982C402.302 275.982 402.963 276.141 403.526 276.458C404.09 276.775 404.525 277.239 404.833 277.85C405.146 278.461 405.302 279.207 405.302 280.087V287.033H402.731V280.485C402.731 279.751 402.541 279.181 402.163 278.774C401.789 278.362 401.263 278.156 400.586 278.156C400.131 278.156 399.724 278.255 399.364 278.454C399.009 278.648 398.73 278.93 398.526 279.299C398.327 279.668 398.228 280.116 398.228 280.641ZM412.752 287.247C411.658 287.247 410.714 287.019 409.918 286.565C409.128 286.105 408.519 285.457 408.093 284.619C407.667 283.776 407.454 282.784 407.454 281.643C407.454 280.521 407.667 279.536 408.093 278.688C408.524 277.836 409.125 277.173 409.897 276.7C410.669 276.221 411.576 275.982 412.617 275.982C413.29 275.982 413.924 276.091 414.521 276.309C415.122 276.522 415.652 276.854 416.112 277.303C416.576 277.753 416.94 278.326 417.205 279.022C417.47 279.713 417.603 280.537 417.603 281.494V282.282H408.661V280.549H415.138C415.134 280.057 415.027 279.619 414.819 279.235C414.611 278.847 414.319 278.541 413.945 278.319C413.576 278.096 413.145 277.985 412.653 277.985C412.127 277.985 411.665 278.113 411.268 278.369C410.87 278.62 410.56 278.951 410.337 279.363C410.12 279.77 410.008 280.218 410.004 280.705V282.218C410.004 282.853 410.12 283.397 410.352 283.852C410.584 284.301 410.908 284.647 411.325 284.889C411.741 285.125 412.229 285.244 412.788 285.244C413.162 285.244 413.5 285.192 413.803 285.087C414.106 284.979 414.369 284.82 414.592 284.612C414.814 284.403 414.982 284.145 415.096 283.837L417.496 284.107C417.345 284.742 417.056 285.296 416.63 285.769C416.209 286.238 415.669 286.603 415.011 286.863C414.353 287.119 413.6 287.247 412.752 287.247ZM419.778 287.033V276.124H422.271V277.943H422.385C422.583 277.313 422.924 276.827 423.407 276.487C423.895 276.141 424.451 275.968 425.076 275.968C425.218 275.968 425.377 275.975 425.552 275.989C425.732 275.999 425.881 276.015 426 276.039V278.404C425.891 278.366 425.718 278.333 425.481 278.305C425.249 278.272 425.024 278.255 424.806 278.255C424.338 278.255 423.916 278.357 423.542 278.56C423.173 278.759 422.882 279.036 422.669 279.391C422.456 279.747 422.349 280.156 422.349 280.62V287.033H419.778ZM437.427 287.247C436.362 287.247 435.439 287.012 434.657 286.543C433.876 286.075 433.27 285.419 432.839 284.576C432.413 283.733 432.2 282.748 432.2 281.622C432.2 280.495 432.413 279.507 432.839 278.66C433.27 277.812 433.876 277.154 434.657 276.685C435.439 276.217 436.362 275.982 437.427 275.982C438.493 275.982 439.416 276.217 440.197 276.685C440.978 277.154 441.582 277.812 442.008 278.66C442.439 279.507 442.654 280.495 442.654 281.622C442.654 282.748 442.439 283.733 442.008 284.576C441.582 285.419 440.978 286.075 440.197 286.543C439.416 287.012 438.493 287.247 437.427 287.247ZM437.441 285.187C438.019 285.187 438.502 285.028 438.89 284.711C439.279 284.389 439.567 283.958 439.757 283.418C439.951 282.879 440.048 282.277 440.048 281.614C440.048 280.947 439.951 280.343 439.757 279.803C439.567 279.259 439.279 278.826 438.89 278.504C438.502 278.182 438.019 278.021 437.441 278.021C436.85 278.021 436.357 278.182 435.964 278.504C435.576 278.826 435.285 279.259 435.091 279.803C434.901 280.343 434.806 280.947 434.806 281.614C434.806 282.277 434.901 282.879 435.091 283.418C435.285 283.958 435.576 284.389 435.964 284.711C436.357 285.028 436.85 285.187 437.441 285.187ZM447.408 280.641V287.033H444.837V276.124H447.294V277.978H447.422C447.673 277.367 448.073 276.882 448.622 276.522C449.176 276.162 449.86 275.982 450.675 275.982C451.428 275.982 452.083 276.143 452.642 276.465C453.205 276.787 453.641 277.254 453.949 277.864C454.261 278.475 454.415 279.216 454.411 280.087V287.033H451.839V280.485C451.839 279.756 451.65 279.185 451.271 278.774C450.897 278.362 450.379 278.156 449.716 278.156C449.266 278.156 448.866 278.255 448.516 278.454C448.17 278.648 447.898 278.93 447.699 279.299C447.505 279.668 447.408 280.116 447.408 280.641ZM461.854 287.247C460.76 287.247 459.815 287.019 459.02 286.565C458.229 286.105 457.621 285.457 457.195 284.619C456.768 283.776 456.555 282.784 456.555 281.643C456.555 280.521 456.768 279.536 457.195 278.688C457.625 277.836 458.227 277.173 458.999 276.7C459.77 276.221 460.677 275.982 461.719 275.982C462.391 275.982 463.026 276.091 463.622 276.309C464.223 276.522 464.754 276.854 465.213 277.303C465.677 277.753 466.042 278.326 466.307 279.022C466.572 279.713 466.705 280.537 466.705 281.494V282.282H457.763V280.549H464.24C464.235 280.057 464.129 279.619 463.92 279.235C463.712 278.847 463.421 278.541 463.047 278.319C462.678 278.096 462.247 277.985 461.754 277.985C461.229 277.985 460.767 278.113 460.369 278.369C459.972 278.62 459.661 278.951 459.439 279.363C459.221 279.77 459.11 280.218 459.105 280.705V282.218C459.105 282.853 459.221 283.397 459.453 283.852C459.685 284.301 460.009 284.647 460.426 284.889C460.843 285.125 461.33 285.244 461.889 285.244C462.263 285.244 462.602 285.192 462.905 285.087C463.208 284.979 463.471 284.82 463.693 284.612C463.916 284.403 464.084 284.145 464.197 283.837L466.598 284.107C466.446 284.742 466.158 285.296 465.732 285.769C465.31 286.238 464.77 286.603 464.112 286.863C463.454 287.119 462.701 287.247 461.854 287.247Z" fill="black"/>
</svg>
